<?xml version="1.0" standalone="no"?>
<!DOCTYPE svg PUBLIC "-//W3C//DTD SVG 20010904//EN"
 "http://www.w3.org/TR/2001/REC-SVG-20010904/DTD/svg10.dtd">
<svg version="1.0" xmlns="http://www.w3.org/2000/svg"
 width="16.000000pt" height="16.000000pt" viewBox="0 0 16.000000 16.000000"
 preserveAspectRatio="xMidYMid meet">
<metadata>
Created by potrace 1.11, written by Peter Selinger 2001-2013
</metadata>
<g transform="translate(0.000000,16.000000) scale(0.002667,-0.002667)"
fill="#000000" stroke="none">
<path d="M1841 2995 l0 -2015 2014 0 2015 0 0 2015 0 2015 -2015 0 -2014 0 0
-2015z m596 1472 c6 -4 13 -23 16 -44 3 -21 17 -92 32 -158 14 -66 37 -172 50
-235 14 -63 47 -221 75 -350 28 -129 53 -246 56 -260 2 -14 7 -36 10 -50 3
-14 8 -38 11 -55 2 -16 9 -45 14 -63 6 -18 12 -43 14 -55 4 -29 18 -96 50
-242 15 -66 28 -129 31 -140 2 -11 7 -33 10 -50 4 -16 8 -37 9 -45 1 -12 25
-120 30 -140 1 -3 5 -27 10 -55 10 -58 9 -52 18 -90 4 -16 9 -39 11 -50 2 -11
12 -56 21 -100 9 -44 18 -91 21 -105 2 -14 13 -65 24 -115 12 -49 35 -157 53
-240 18 -82 36 -149 42 -148 8 2 28 67 38 128 3 17 12 59 21 95 8 36 25 108
37 160 24 110 128 529 158 640 55 209 192 725 216 815 15 59 142 536 185 698
17 62 38 145 47 185 12 49 22 72 33 73 58 4 194 3 201 -2 8 -5 72 -229 85
-298 3 -14 7 -28 10 -32 2 -4 19 -67 38 -141 19 -73 69 -261 111 -418 42 -157
89 -334 105 -395 16 -60 45 -171 65 -245 20 -74 68 -263 107 -420 175 -710
209 -844 213 -849 3 -2 8 -2 11 1 5 6 29 110 40 178 3 19 8 38 9 41 2 3 7 28
11 55 3 27 8 52 10 55 2 3 6 21 9 40 3 19 24 124 46 234 22 110 42 211 44 225
2 14 11 57 19 95 9 39 23 102 32 140 8 39 17 79 19 90 6 36 23 117 80 380 30
143 65 303 76 355 11 52 24 113 29 135 5 22 18 83 29 135 11 52 41 192 66 310
25 118 48 226 51 240 3 14 9 41 14 60 l9 35 98 -2 c54 -1 101 -2 104 -2 3 -1
0 -25 -7 -53 -8 -29 -23 -96 -35 -148 -20 -93 -64 -291 -79 -360 -4 -19 -20
-89 -35 -155 -15 -66 -29 -128 -31 -138 -2 -10 -5 -26 -8 -35 -3 -9 -7 -28
-10 -42 -8 -42 -32 -147 -126 -570 -50 -223 -93 -414 -94 -425 -2 -11 -18 -81
-35 -155 -29 -129 -88 -393 -97 -435 -2 -11 -15 -69 -29 -130 -14 -60 -41
-177 -59 -260 l-33 -150 -118 0 -119 0 -17 60 c-9 33 -67 251 -129 485 -61
234 -120 454 -130 490 -10 36 -39 146 -65 245 -26 99 -61 229 -77 289 -16 59
-31 115 -33 125 -2 9 -12 50 -23 91 -59 219 -77 285 -102 390 -16 63 -42 174
-60 245 -18 72 -33 135 -34 140 -10 46 -48 213 -52 224 -2 8 -7 12 -9 9 -3 -2
-29 -101 -59 -219 -142 -559 -232 -907 -246 -954 -5 -16 -11 -41 -14 -55 -3
-14 -17 -68 -31 -120 -15 -52 -28 -102 -30 -110 -2 -8 -20 -78 -40 -155 -20
-77 -54 -210 -76 -295 -22 -85 -73 -281 -114 -435 -40 -154 -83 -319 -95 -367
l-23 -88 -117 0 -117 0 -12 54 c-6 29 -14 65 -17 80 -2 14 -14 66 -25 114 -12
48 -22 94 -24 102 -2 8 -15 65 -29 125 -14 61 -27 121 -30 135 -3 14 -17 75
-31 135 -14 61 -30 133 -36 160 -6 28 -14 66 -19 85 -30 139 -102 445 -105
449 -1 3 -6 22 -9 41 -3 19 -17 85 -31 145 -45 194 -107 469 -116 510 -4 22
-31 139 -59 260 -115 497 -150 657 -145 665 5 7 200 5 212 -3z"/>
<path d="M482 4295 c-16 -49 -27 -93 -23 -96 3 -3 230 -81 504 -172 l498 -166
14 32 c23 57 49 147 43 152 -3 3 -230 81 -506 173 l-500 167 -30 -90z"/>
<path d="M140 2938 l0 -98 610 0 611 0 -3 98 -3 97 -607 1 -608 1 0 -99z"/>
<path d="M957 1849 c-275 -92 -501 -169 -503 -171 -2 -2 11 -45 28 -94 l31
-91 507 169 507 170 -30 86 c-16 48 -32 90 -35 93 -4 3 -231 -70 -505 -162z"/>
</g>
</svg>
